<svg xmlns="http://www.w3.org/2000/svg" width="1200" height="630" viewBox="0 0 1200 630">
  <defs>
    <pattern id="paper" width="7" height="7" patternUnits="userSpaceOnUse">
      <rect width="7" height="7" fill="#f3edda"/>
      <path d="M0 1h7M0 5h7" stroke="#181714" stroke-opacity=".035"/>
    </pattern>
    <linearGradient id="bar" x2="1">
      <stop stop-color="#051b48"/>
      <stop offset="1" stop-color="#1774a5"/>
    </linearGradient>
  </defs>
  <rect width="1200" height="630" fill="#20272a"/>
  <circle cx="1060" cy="50" r="260" fill="none" stroke="#b9362f" stroke-width="64" opacity=".34"/>
  <path d="M0 0h735L465 630H0z" fill="url(#paper)"/>
  <rect x="64" y="70" width="258" height="36" fill="#b9362f"/>
  <text x="82" y="95" fill="#fff" font-family="Verdana,sans-serif" font-size="18" font-weight="700" letter-spacing="3">SOL-37 PUBLIC IRC</text>
  <text x="58" y="232" fill="#181714" font-family="Verdana,sans-serif" font-size="68" font-weight="700">COMIC</text>
  <text x="58" y="326" fill="#b9362f" stroke="#e7b43b" stroke-width="2" paint-order="stroke" font-family="Verdana,sans-serif" font-size="76" font-weight="700">SALON.</text>
  <text x="63" y="380" fill="#181714" font-family="Georgia,serif" font-size="25" font-weight="700">The bridge works today.</text>
  <text x="63" y="416" fill="#181714" font-family="Georgia,serif" font-size="25" font-weight="700">The hardened client is in development.</text>
  <rect x="62" y="464" width="370" height="52" fill="#1d4f73" stroke="#fff" stroke-width="2"/>
  <text x="88" y="498" fill="#fff" font-family="Verdana,sans-serif" font-size="20" font-weight="700">irc.system42.one</text>

  <rect x="568" y="122" width="558" height="390" fill="#c7c7bf" stroke="#fff" stroke-width="5"/>
  <rect x="575" y="129" width="544" height="42" fill="url(#bar)"/>
  <text x="591" y="157" fill="#fff" font-family="Verdana,sans-serif" font-size="18" font-weight="700">Comic Salon - #comic-salon</text>
  <g fill="#c7c7bf" stroke="#fff">
    <rect x="1031" y="138" width="25" height="24"/>
    <rect x="1058" y="138" width="25" height="24"/>
    <rect x="1085" y="138" width="25" height="24"/>
  </g>
  <rect x="580" y="178" width="534" height="327" fill="#071310" stroke="#181714" stroke-width="3"/>
  <text x="599" y="214" fill="#5affb5" font-family="Lucida Console,monospace" font-size="17">*** Tunnel verified. Welcome.</text>
  <text x="599" y="257" fill="#ffef73" font-family="Lucida Console,monospace" font-size="17">&lt;Panel&gt;</text>
  <text x="705" y="257" fill="#d8fff3" font-family="Lucida Console,monospace" font-size="17">The room is open.</text>
  <text x="599" y="298" fill="#7fc4ff" font-family="Lucida Console,monospace" font-size="17">&lt;Glyph&gt;</text>
  <text x="705" y="298" fill="#d8fff3" font-family="Lucida Console,monospace" font-size="17">The controls are not.</text>
  <text x="599" y="339" fill="#ffad54" font-family="Lucida Console,monospace" font-size="17">&lt;Socket&gt;</text>
  <text x="714" y="339" fill="#d8fff3" font-family="Lucida Console,monospace" font-size="17">Correct.</text>
  <rect x="598" y="372" width="496" height="63" fill="#621d1b"/>
  <text x="616" y="399" fill="#fff" font-family="Lucida Console,monospace" font-size="15">[Salon] Permission denied:</text>
  <text x="616" y="422" fill="#fff" font-family="Lucida Console,monospace" font-size="15">mutation controls are local-only.</text>
  <rect x="598" y="454" width="496" height="33" fill="#172722" stroke="#41685c"/>
  <text x="612" y="477" fill="#fff" font-family="Lucida Console,monospace" font-size="15">#comic-salon &gt; _</text>
  <rect x="848" y="79" width="279" height="36" fill="#e7b43b"/>
  <text x="862" y="103" fill="#181714" font-family="Lucida Console,monospace" font-size="14" font-weight="700">PUBLIC ROOM / LOCAL CONTROLS</text>
  <text x="598" y="559" fill="#fff" font-family="Verdana,sans-serif" font-size="17" font-weight="700">Independent project. No Microsoft sponsorship.</text>
</svg>
